<svg width="48" height="48" viewBox="0 0 48 48" fill="none" xmlns="http://www.w3.org/2000/svg">
<g clip-path="url(#clip0_21364_4216)">
<path d="M34.7659 26.1295C34.3881 32.5603 31.7243 47 31.7243 47L18.7592 46.9603C18.7016 46.2871 17.5598 43.4403 17.5598 43.4403C17.5598 43.4403 13.714 40.7185 11.4998 38.5L9.00001 35L8.99977 33H12L16 37L18.7592 35.5L20.765 32.5152L20.5399 26.0225L14.2349 24.2209C14.1814 24.2774 12 31.5 12 31.5H8.86157V29.5L11 19.5L23.0242 21.4889C23.1071 21.4866 21.2935 9.38951 21.1689 8.49918L22.215 1.49911C22.3062 1.47628 23.6916 1 23.6916 1C23.8369 1.28611 24.7621 3.4196 24.7621 3.4196C24.7621 3.4196 27.2246 15.9781 28.1856 19.5906C28.377 18.4623 30.0611 6.49914 30.0611 6.49914L32.6117 3.93763L34.4972 3.4196C34.178 7.17322 33.4673 16.3556 33.0888 20.1043L38.3408 14.414L43.1379 12.9993L43.9998 14.3535L41.1752 17.2603L34.7659 26.1295Z" fill="white"/>
</g>
<defs>
<clipPath id="clip0_21364_4216">
<rect width="48" height="48" fill="white"/>
</clipPath>
</defs>
</svg>
