<svg width="1520" height="800" viewBox="0 0 1520 800" fill="none" xmlns="http://www.w3.org/2000/svg">
<g clip-path="url(#clip0_20620_3873)">
<rect width="1536" height="800" transform="translate(-8)" fill="url(#paint0_radial_20620_3873)"/>
<path opacity="0.6" d="M-85.0007 792.5L1605 792.5M759.499 1638L759.499 -52M-246.572 1373.57L1766.07 211.567M1182.07 1525.04L337.065 61.459M-56.3372 1011.22L1576.08 573.815M978.219 1609.34L540.814 -23.0779M162.141 1390.15L1357.15 195.141M1357.15 1390.86L162.141 195.848M540.814 1609.08L978.218 -23.3365M1576.08 1012.19L-56.3372 574.781M337.066 1524.54L1182.07 60.9584M1766.07 1374.43L-246.572 212.433M824.999 793C824.999 828.899 795.898 858 759.999 858C724.101 858 694.999 828.899 694.999 793C694.999 757.101 724.101 728 759.999 728C795.898 728 824.999 757.101 824.999 793ZM1760 793C1760 1345.28 1312.28 1793 759.999 1793C207.715 1793 -240.001 1345.28 -240.001 793C-240.001 240.715 207.715 -207 759.999 -207C1312.28 -207 1760 240.715 1760 793ZM832.828 793C832.828 833.222 800.222 865.829 760 865.829C719.778 865.829 687.171 833.222 687.171 793C687.171 752.778 719.778 720.172 760 720.172C800.222 720.172 832.828 752.778 832.828 793ZM844.326 793C844.326 839.572 806.572 877.326 759.999 877.326C713.427 877.326 675.673 839.572 675.673 793C675.673 746.428 713.427 708.674 759.999 708.674C806.572 708.674 844.326 746.428 844.326 793ZM859.493 793C859.493 847.949 814.948 892.494 759.999 892.494C705.051 892.494 660.506 847.949 660.506 793C660.506 738.051 705.051 693.506 759.999 693.506C814.948 693.506 859.493 738.051 859.493 793ZM878.33 793C878.33 858.352 825.352 911.331 760 911.331C694.647 911.331 641.669 858.352 641.669 793C641.669 727.648 694.647 674.669 760 674.669C825.352 674.669 878.33 727.648 878.33 793ZM900.836 793C900.836 870.782 837.781 933.837 759.999 933.837C682.217 933.837 619.162 870.782 619.162 793C619.162 715.218 682.217 652.163 759.999 652.163C837.781 652.163 900.836 715.218 900.836 793ZM927.013 793C927.013 885.239 852.238 960.013 760 960.013C667.761 960.013 592.986 885.239 592.986 793C592.986 700.761 667.761 625.987 760 625.987C852.238 625.987 927.013 700.761 927.013 793ZM956.858 793C956.858 901.722 868.722 989.859 759.999 989.859C651.277 989.859 563.14 901.722 563.14 793C563.14 684.278 651.277 596.141 759.999 596.141C868.722 596.141 956.858 684.278 956.858 793ZM990.374 793C990.374 920.232 887.232 1023.37 759.999 1023.37C632.767 1023.37 529.625 920.232 529.625 793C529.625 665.768 632.767 562.626 759.999 562.626C887.232 562.626 990.374 665.768 990.374 793ZM1027.56 793C1027.56 940.768 907.768 1060.56 759.999 1060.56C612.23 1060.56 492.44 940.768 492.44 793C492.44 645.231 612.23 525.441 759.999 525.441C907.768 525.441 1027.56 645.231 1027.56 793ZM1068.41 793C1068.41 963.332 930.331 1101.41 759.999 1101.41C589.668 1101.41 451.586 963.332 451.586 793C451.586 622.668 589.668 484.587 759.999 484.587C930.331 484.587 1068.41 622.668 1068.41 793ZM1112.94 793C1112.94 987.922 954.921 1145.94 759.999 1145.94C565.078 1145.94 407.062 987.922 407.062 793C407.062 598.078 565.078 440.063 759.999 440.063C954.921 440.063 1112.94 598.078 1112.94 793ZM1161.13 793C1161.13 1014.54 981.537 1194.13 759.999 1194.13C538.461 1194.13 358.869 1014.54 358.869 793C358.869 571.462 538.461 391.87 759.999 391.87C981.537 391.87 1161.13 571.462 1161.13 793ZM1212.99 793C1212.99 1043.18 1010.18 1245.99 759.999 1245.99C509.818 1245.99 307.006 1043.18 307.006 793C307.006 542.819 509.818 340.007 759.999 340.007C1010.18 340.007 1212.99 542.819 1212.99 793ZM1268.52 793C1268.52 1073.85 1040.85 1301.53 759.999 1301.53C479.148 1301.53 251.473 1073.85 251.473 793C251.473 512.149 479.148 284.474 759.999 284.474C1040.85 284.474 1268.52 512.149 1268.52 793ZM1327.73 793C1327.73 1106.55 1073.55 1360.73 759.999 1360.73C446.452 1360.73 192.272 1106.55 192.272 793C192.272 479.453 446.452 225.272 759.999 225.272C1073.55 225.272 1327.73 479.453 1327.73 793ZM1390.6 793C1390.6 1141.27 1108.27 1423.6 759.999 1423.6C411.729 1423.6 129.4 1141.27 129.4 793C129.4 444.73 411.729 162.401 759.999 162.401C1108.27 162.401 1390.6 444.73 1390.6 793ZM1457.14 793C1457.14 1178.02 1145.02 1490.14 759.999 1490.14C374.98 1490.14 62.8592 1178.02 62.8592 793C62.8592 407.98 374.98 95.8599 759.999 95.8599C1145.02 95.8599 1457.14 407.98 1457.14 793ZM1527.35 793C1527.35 1216.8 1183.8 1560.35 759.999 1560.35C336.203 1560.35 -7.35175 1216.8 -7.35175 793C-7.35175 369.204 336.203 25.6489 759.999 25.6489C1183.8 25.6489 1527.35 369.204 1527.35 793ZM1601.23 793C1601.23 1257.6 1224.6 1634.23 759.999 1634.23C295.4 1634.23 -81.2316 1257.6 -81.2316 793C-81.2316 328.401 295.4 -48.231 759.999 -48.231C1224.6 -48.231 1601.23 328.401 1601.23 793ZM1678.78 793C1678.78 1300.43 1267.43 1711.78 759.999 1711.78C252.571 1711.78 -158.781 1300.43 -158.781 793C-158.781 285.571 252.571 -125.781 759.999 -125.781C1267.43 -125.781 1678.78 285.571 1678.78 793Z" stroke="url(#paint1_radial_20620_3873)" stroke-width="0.5"/>
<path d="M649 775C646.978 764 594.212 758.965 555.909 755.032C548.875 754.31 542.313 753.636 536.627 753.025C440.508 742.089 336.909 734.76 243.5 729.993C252.167 728.829 260.732 724.103 243.5 720C222.5 715 -72.3006 677.805 -23.3006 707.938C-65.921 706.781 -101.603 706.258 -127 706.17L-181.342 565.953L-72.3096 510.515C27.1122 540.784 181.107 592.983 290.325 630.004L290.329 630.005L290.336 630.007C348.718 649.797 394.304 665.249 411.917 670.695C358.801 668.779 471.048 697.256 507.492 706.502L507.504 706.505C510.956 707.381 513.727 708.084 515.613 708.572C537.392 714.211 545.695 716.146 538.898 710.806C569.927 721.418 647.428 743.5 649 737C650.209 732 521.479 676.764 397.5 624C348.111 602.981 273.238 569.432 206.127 539.361C169.976 523.162 136.078 507.973 109.628 496.295C117.862 498.558 132.293 501.483 124.137 495.075C120.341 492.093 74.4365 472.033 22.3675 449.279C-37.4539 423.138 -105.413 393.441 -127 382C-117.457 384.955 -108.881 380.209 -99.5598 375.051C-86.1267 367.617 -71.1473 359.327 -49.4997 372C-3.66418 398.834 480.641 646.925 603 697.5C604.218 698.003 605.416 698.499 606.594 698.987C641.728 713.533 659.938 721.072 673 705C693.612 679.638 724.816 662 760 662C787.55 662 812.644 672.51 831.494 689.739C839.502 697.059 850.443 701.039 860.914 698.199C871.1 695.436 881.63 692.561 892.669 689.548L896.248 688.572C1021.2 654.469 1316.96 549.129 1459.77 498.263C1500.26 483.842 1528.45 473.8 1536.98 471L1547.26 483.555C1488.87 503.045 1287.73 570.391 1205.66 598.117C1211.25 595.455 1217.08 591.741 1195.58 598.18C1168.7 606.23 1033.31 652.295 1006.68 661.742C985.367 669.301 993.173 669.318 999.739 668.382C961.442 681.684 904.066 702.091 892.669 706.688C846.021 725.503 849.021 731.546 889.525 723.878C946.207 713.148 1237.29 653.302 1561.69 567.896C1577.9 587.148 1576.97 625.79 1574.48 642.704C1511.51 649.874 1432.16 661.242 1345.9 674.831C1365.54 671.717 1384.34 663.642 1350.69 667.473C1317.04 671.305 1121.02 705.029 1074.24 714.633C1036.81 722.317 1046.24 723.998 1055.64 723.878C867.658 757.4 915.848 758.375 956.032 757.363C984.282 756.652 1285.42 743.17 1496.68 730.579C1492.15 731.603 1487.48 733.437 1505.09 732.572C1506.32 732.511 1507.8 732.44 1509.5 732.358C1538.06 730.979 1628.07 726.633 1642.36 721.09C1670.32 719.042 1694.67 717.061 1714 715.199C1687.98 732.986 1621.46 740.466 1591.45 741.982C1466.62 743.604 1162.91 751.721 946.698 771.208C811.565 783.388 936.248 801 1161.5 801L847.239 828.229C828.11 855.883 796.171 874 760 874C719.049 874 683.521 850.777 665.868 816.783L524.389 934.571L465.292 955.823C506.54 927.814 596.109 856.242 640.5 816.783C677.611 783.794 646.315 799.086 583.812 829.627C563.912 839.35 540.849 850.619 515.823 862.368L515.821 862.369C501.924 868.893 487.495 875.667 472.758 882.536C551.592 838.935 465.675 873.53 412.862 896.278C368.799 868.543 186.5 800.461 186.5 800.461C369.5 800.461 652.584 794.5 649 775Z" fill="#F4FDAB"/>
<path d="M1120 555L1369 401C1239.05 477.055 1210.59 496.814 1205.66 471C1189.15 507.22 1186 514.181 1120 555Z" fill="#F4FDAB"/>
<path d="M290.336 495.075L140.208 408.525C215.708 449.025 225.708 425.025 253.708 444.025C225.208 438.525 226.708 455.025 290.336 495.075Z" fill="#F4FDAB"/>
<path d="M649 775C646.978 764 594.212 758.965 555.909 755.032C548.875 754.31 542.313 753.636 536.627 753.025C440.508 742.089 336.909 734.76 243.5 729.993C252.167 728.829 260.732 724.103 243.5 720C222.5 715 -72.3006 677.805 -23.3006 707.938C-65.921 706.781 -101.603 706.258 -127 706.17L-181.342 565.953L-72.3096 510.515C27.1122 540.784 181.107 592.983 290.325 630.004L290.329 630.005L290.336 630.007C348.718 649.797 394.304 665.249 411.917 670.695C358.801 668.779 471.048 697.256 507.492 706.502L507.504 706.505C510.956 707.381 513.727 708.084 515.613 708.572C537.392 714.211 545.695 716.146 538.898 710.806C569.927 721.418 647.428 743.5 649 737C650.209 732 521.479 676.764 397.5 624C348.111 602.981 273.238 569.432 206.127 539.361C169.976 523.162 136.078 507.973 109.628 496.295C117.862 498.558 132.293 501.483 124.137 495.075C120.341 492.093 74.4365 472.033 22.3675 449.279C-37.4539 423.138 -105.413 393.441 -127 382C-117.457 384.955 -108.881 380.209 -99.5598 375.051C-86.1267 367.617 -71.1473 359.327 -49.4997 372C-3.66418 398.834 480.641 646.925 603 697.5C604.218 698.003 605.416 698.499 606.594 698.987C641.728 713.533 659.938 721.072 673 705C693.612 679.638 724.816 662 760 662C787.55 662 812.644 672.51 831.494 689.739C839.502 697.059 850.443 701.039 860.914 698.199C871.1 695.436 881.63 692.561 892.669 689.548L896.248 688.572C1021.2 654.469 1316.96 549.129 1459.77 498.263C1500.26 483.842 1528.45 473.8 1536.98 471L1547.26 483.555C1488.87 503.045 1287.73 570.391 1205.66 598.117C1211.25 595.455 1217.08 591.741 1195.58 598.18C1168.7 606.23 1033.31 652.295 1006.68 661.742C985.367 669.301 993.173 669.318 999.739 668.382C961.442 681.684 904.066 702.091 892.669 706.688C846.021 725.503 849.021 731.546 889.525 723.878C946.207 713.148 1237.29 653.302 1561.69 567.896C1577.9 587.148 1576.97 625.79 1574.48 642.704C1511.51 649.874 1432.16 661.242 1345.9 674.831C1365.54 671.717 1384.34 663.642 1350.69 667.473C1317.04 671.305 1121.02 705.029 1074.24 714.633C1036.81 722.317 1046.24 723.998 1055.64 723.878C867.658 757.4 915.848 758.375 956.032 757.363C984.282 756.652 1285.42 743.17 1496.68 730.579C1492.15 731.603 1487.48 733.437 1505.09 732.572C1506.32 732.511 1507.8 732.44 1509.5 732.358C1538.06 730.979 1628.07 726.633 1642.36 721.09C1670.32 719.042 1694.67 717.061 1714 715.199C1687.98 732.986 1621.46 740.466 1591.45 741.982C1466.62 743.604 1162.91 751.721 946.698 771.208C811.565 783.388 936.248 801 1161.5 801L847.239 828.229C828.11 855.883 796.171 874 760 874C719.049 874 683.521 850.777 665.868 816.783L524.389 934.571L465.292 955.823C506.54 927.814 596.109 856.242 640.5 816.783C677.611 783.794 646.315 799.086 583.812 829.627C563.912 839.35 540.849 850.619 515.823 862.368L515.821 862.369C501.924 868.893 487.495 875.667 472.758 882.536C551.592 838.935 465.675 873.53 412.862 896.278C368.799 868.543 186.5 800.461 186.5 800.461C369.5 800.461 652.584 794.5 649 775Z" stroke="black" stroke-width="0.5"/>
<path d="M1120 555L1369 401C1239.05 477.055 1210.59 496.814 1205.66 471C1189.15 507.22 1186 514.181 1120 555Z" stroke="black" stroke-width="0.5"/>
<path d="M290.336 495.075L140.208 408.525C215.708 449.025 225.708 425.025 253.708 444.025C225.208 438.525 226.708 455.025 290.336 495.075Z" stroke="black" stroke-width="0.5"/>
<path d="M943.5 728.5L876.5 745" stroke="black"/>
<path d="M216.965 651.05C84.1406 616.038 -9.50934 614.331 63.4925 609.405C122.386 605.43 35.5655 591.925 -33.6953 570.1" stroke="black"/>
<path d="M1086.95 698.817C1368.16 640.568 1544.84 588.206 1412.99 632.098C1306.63 667.507 1481.63 624.823 1631.62 596.202" stroke="black"/>
<path d="M860 768C860 823.228 815.228 868 760 868M660 768C660 756.25 662.027 744.973 665.749 734.5M788 671.973C794.277 673.8 800.299 676.226 806 679.184" stroke="black"/>
<path d="M-29 414.833C-21.5692 418.591 7.78723 431.746 29.1513 442.094C55.8564 455.028 38.3312 442.145 25.3293 433.569C-34.3596 394.203 111.711 465.826 183.955 500.811" stroke="black"/>
<path d="M512.624 720.555C494.959 716.693 362.924 683.782 411.351 709.88" stroke="black"/>
<g clip-path="url(#clip1_20620_3873)">
<rect x="666" y="674" width="188" height="188" rx="94" fill="#FF7722"/>
<circle cx="760" cy="768" r="94" fill="#FF7722"/>
<path opacity="0.5" d="M752 723.5C722.63 732.08 707.861 762.545 715.711 795.668C721.303 819.261 707.781 844.029 692.097 825.537C678.937 810.022 671 789.938 671 768C671 718.847 710.847 679 760 679C795.5 679 796.5 710.5 752 723.5Z" fill="#FFB152"/>
<path opacity="0.5" d="M793.5 736.5C749.119 749.465 717.134 800.434 763.941 845.197C768.449 849.508 766.388 857.353 760.15 857.311C706.819 856.953 671 812.603 671 768C671 718.847 710.847 679 760 679C795.5 679 838 723.5 793.5 736.5Z" fill="#FFB152"/>
<mask id="mask0_20620_3873" style="mask-type:alpha" maskUnits="userSpaceOnUse" x="666" y="674" width="188" height="188">
<circle cx="760" cy="768" r="93.5" fill="#FF7722" stroke="black"/>
</mask>
<g mask="url(#mask0_20620_3873)">
<path d="M700.031 724.805C698 723.595 691 729 686.504 741.076C691.746 716.058 706.284 692.638 726.999 677.5L760 665.5L791 679.5C767 672.5 748.599 679.644 732 693C716.962 705.099 711.599 723.836 713.5 725.5C715.5 727.25 724.5 723 724.5 723C710.5 731 695 747 696.5 783C684.5 744.5 703.717 727 700.031 724.805Z" fill="#F4FDAB" stroke="black"/>
<path d="M833.398 688.5C827.382 689.7 818.348 693 818.348 693C817.295 699.669 813.553 704.963 808 708.859C811.5 707.5 812.333 709.5 809 712C806.464 713.902 797.117 718.269 792 719C788 719.571 785.5 717.5 790 715.835C779.476 717.734 767.153 717.205 755 714.195C787.122 723.739 781.66 737.433 775.545 752.764L775.431 753.05C820 708.5 849 768.557 845.003 773.44C843.005 775.879 838.5 769.5 833.398 765.484C841.5 775 840.332 797.977 834 812C831.5 804.5 827 798.5 827 798.5C834 823 826.66 835.987 812.304 846C867.889 821.267 894.255 676.36 833.398 688.5Z" fill="#FFB152" stroke="black"/>
</g>
<path opacity="0.5" d="M762.758 790.72C774.226 767.128 805.161 762.388 791.438 790.618C782.199 809.625 791.438 813.991 783 821C773.972 828.5 754.358 808 762.758 790.72Z" fill="#F4FDAB"/>
<path d="M764.889 766.557C765.443 766.078 766.005 765.62 766.573 765.184C766.006 765.672 765.444 766.129 764.889 766.557C747.931 781.196 738.503 814.569 766.573 832C734.414 822.439 724.572 779.72 747.587 755C739.763 767.537 749.876 778.111 764.889 766.557Z" fill="#FFB152"/>
<path d="M766.573 832C737.587 814 748.587 779 766.573 765.184C750.648 778.89 739.474 768 747.587 755C724.572 779.72 734.414 822.439 766.573 832Z" stroke="black"/>
<path d="M784.143 808.396C783.665 808.647 783.184 808.883 782.701 809.103C783.192 808.846 783.672 808.611 784.143 808.396C798.797 800.689 811.16 778.238 793.863 761C815.419 773.256 815.368 805.654 794.669 819.606C802.396 811.888 796.881 802.586 784.143 808.396Z" fill="#F4FDAB"/>
<path d="M793.863 761C811.724 778.801 797.958 802.161 782.701 809.103C796.456 801.896 802.681 811.602 794.669 819.606C815.368 805.654 815.419 773.256 793.863 761Z" stroke="black"/>
<path d="M794 811C792.8 803 796.833 797 799 795C798 803.5 800.38 807.5 799.5 813C798.14 821.5 791.333 825.5 788 826.5C790.5 824.667 795.2 819 794 811Z" fill="#FFB152" stroke="black"/>
<path d="M736.394 739.288C727.133 747.956 711.834 772.421 724.72 800.933" stroke="black"/>
<path d="M830.542 779.733C828.708 766.555 819.798 756.263 816.311 762.77" stroke="black"/>
<circle cx="760" cy="768" r="93.5" stroke="black"/>
</g>
<path d="M336.599 347.251L339.866 362.095C344.094 382.989 345.44 398.464 337.571 405.652C350.229 417.479 355.795 436.16 360.819 457.305L364.086 472.15L412.85 487.608L409.583 472.763C405.355 451.87 402.916 434.18 411.878 429.207C399.219 417.38 393.653 398.699 388.63 377.553L385.363 362.709L336.599 347.251Z" fill="#63EA71"/>
<path d="M339.866 362.095L336.599 347.251L322.211 360.394L325.478 375.239C329.705 396.132 331.501 411.197 323.183 418.795L337.571 405.652C345.44 398.464 344.094 382.989 339.866 362.095Z" fill="#27B079"/>
<path d="M360.819 457.305C355.795 436.16 350.229 417.479 337.571 405.652L323.183 418.795C335.841 430.622 341.407 449.303 346.431 470.449L349.698 485.293L364.086 472.15L360.819 457.305Z" fill="#08493C"/>
<path d="M412.85 487.608L364.086 472.15L349.698 485.293L398.462 500.751L412.85 487.608Z" fill="#08493C"/>
<path d="M336.599 347.251L339.866 362.095C344.094 382.989 345.44 398.464 337.571 405.652M336.599 347.251L385.363 362.709L388.63 377.553C393.653 398.699 399.219 417.38 411.878 429.207C402.916 434.18 405.355 451.87 409.583 472.763L412.85 487.608M336.599 347.251L322.211 360.394L325.478 375.239C329.705 396.132 331.501 411.197 323.183 418.795M337.571 405.652C350.229 417.479 355.795 436.16 360.819 457.305L364.086 472.15M337.571 405.652L323.183 418.795M364.086 472.15L412.85 487.608M364.086 472.15L349.698 485.293M412.85 487.608L398.462 500.751L349.698 485.293M323.183 418.795C335.841 430.622 341.407 449.303 346.431 470.449L349.698 485.293" stroke="black"/>
<path d="M392.308 418.156C391.925 413.295 387.554 409.362 382.011 405.935L382.152 399.574L377.879 397.253L377.697 403.427C376.531 402.794 375.366 402.161 374.222 401.621L374.404 395.448L370.132 393.127L369.99 399.488C369.029 399.007 368.16 398.555 367.271 398.01L361.352 394.815L361.224 398.899L364.332 400.588C366.069 401.491 366.594 402.711 366.802 403.655L366.587 410.869C366.68 410.898 366.885 411.052 367.068 411.11C366.975 411.08 366.771 410.927 366.587 410.869L366.325 420.966C366.245 421.379 365.877 422.043 364.714 421.418C364.735 421.514 361.606 419.729 361.606 419.729L360.641 423.9L366.261 426.904C367.334 427.508 368.317 428.083 369.369 428.593L369.249 435.049L373.522 437.37L373.663 431.009L377.083 432.897L376.941 439.258L381.214 441.579L381.335 435.123C388.61 438.652 393.658 439.825 394.435 434.018C395.042 429.384 392.536 425.768 388.426 422.631C391.06 422.941 392.598 421.761 392.319 418.163L392.308 418.156ZM385.986 428.698C385.849 433.481 376.759 427.962 373.855 426.425L374.029 417.881C376.933 419.416 386.07 423.634 385.986 428.698ZM384.299 415.612C384.233 419.98 376.543 415.344 374.098 413.953L374.276 406.198C376.72 407.588 384.395 410.99 384.299 415.612Z" fill="#08493C"/>
<path d="M406.932 774.631L399.275 776.733C388.488 779.498 380.45 780.615 376.489 776.702C370.658 783.623 361.061 787.027 350.163 790.215L342.506 792.317L335.747 818.172L343.404 816.07C354.192 813.305 363.355 811.559 366.19 816.101C372.022 809.18 381.619 805.776 392.516 802.588L400.174 800.486L406.932 774.631Z" fill="#63EA71"/>
<path d="M399.275 776.733L406.932 774.631L399.69 767.476L392.033 769.578C381.245 772.343 373.434 773.684 369.247 769.548L376.489 776.702C380.45 780.615 388.488 779.498 399.275 776.733Z" fill="#27B079"/>
<path d="M350.163 790.215C361.061 787.027 370.658 783.623 376.489 776.702L369.247 769.548C363.415 776.469 353.818 779.873 342.92 783.06L335.263 785.162L342.506 792.317L350.163 790.215Z" fill="#08493C"/>
<path d="M335.747 818.172L342.506 792.317L335.263 785.162L328.504 811.018L335.747 818.172Z" fill="#08493C"/>
<path d="M406.932 774.631L399.275 776.733C388.488 779.498 380.45 780.615 376.489 776.702M406.932 774.631L400.174 800.486L392.516 802.588C381.619 805.776 372.022 809.18 366.19 816.101C363.355 811.559 354.192 813.305 343.404 816.07L335.747 818.172M406.932 774.631L399.69 767.476L392.033 769.578C381.245 772.343 373.434 773.684 369.247 769.548M376.489 776.702C370.658 783.623 361.061 787.027 350.163 790.215L342.506 792.317M376.489 776.702L369.247 769.548M342.506 792.317L335.747 818.172M342.506 792.317L335.263 785.162M335.747 818.172L328.504 811.018L335.263 785.162M369.247 769.548C363.415 776.469 353.818 779.873 342.92 783.06L335.263 785.162" stroke="black"/>
<path d="M980.94 595.729L980.23 604.563C979.024 616.934 977.135 625.793 971.522 628.459C976.563 637.213 976.48 648.579 975.675 661.227L974.965 670.061L999.52 686.998L1000.23 678.163C1001.44 665.792 1003.09 655.512 1008.94 654.267C1003.9 645.513 1003.98 634.147 1004.78 621.499L1005.49 612.665L980.94 595.729Z" fill="#63EA71"/>
<path d="M980.23 604.563L980.94 595.729L970.675 600.604L969.965 609.438C968.759 621.809 967.191 630.516 961.257 633.334L971.522 628.459C977.135 625.793 979.024 616.934 980.23 604.563Z" fill="#27B079"/>
<path d="M975.675 661.227C976.48 648.579 976.563 637.213 971.522 628.459L961.257 633.334C966.298 642.088 966.216 653.454 965.411 666.102L964.701 674.936L974.965 670.061L975.675 661.227Z" fill="#08493C"/>
<path d="M999.52 686.998L974.965 670.061L964.701 674.936L989.255 691.873L999.52 686.998Z" fill="#08493C"/>
<path d="M980.94 595.729L980.23 604.563C979.024 616.934 977.135 625.793 971.522 628.459M980.94 595.729L1005.49 612.665L1004.78 621.499C1003.98 634.147 1003.9 645.513 1008.94 654.267C1003.09 655.512 1001.44 665.792 1000.23 678.163L999.52 686.998M980.94 595.729L970.675 600.604L969.965 609.438C968.759 621.809 967.191 630.516 961.257 633.334M971.522 628.459C976.563 637.213 976.48 648.579 975.675 661.227L974.965 670.061M971.522 628.459L961.257 633.334M974.965 670.061L999.52 686.998M974.965 670.061L964.701 674.936M999.52 686.998L989.255 691.873L964.701 674.936M961.257 633.334C966.298 642.088 966.216 653.454 965.411 666.102L964.701 674.936" stroke="black"/>
<path d="M-75.9614 713.154L-52.6756 716.811C-20.1107 722.493 3.00256 729.282 8.94517 744.703C33.1713 733.092 63.2962 735.594 96.6748 740.269L119.961 743.926L169.805 682.211L146.519 678.554C113.954 672.871 87.0258 666.412 84.8984 650.661C60.6723 662.273 30.5473 659.771 -2.83127 655.096L-26.1171 651.439L-75.9614 713.154Z" fill="#63EA71"/>
<path d="M-52.6756 716.811L-75.9614 713.154L-65.0949 741.353L-41.8091 745.01C-9.24417 750.693 13.5295 756.6 19.8117 772.903L8.94517 744.703C3.00256 729.282 -20.1107 722.493 -52.6756 716.811Z" fill="#08493C"/>
<path d="M96.6748 740.269C63.2962 735.594 33.1713 733.092 8.94517 744.703L19.8117 772.903C44.0378 761.292 74.1627 763.793 107.541 768.468L130.827 772.126L119.961 743.926L96.6748 740.269Z" fill="#08493C"/>
<path d="M169.805 682.211L119.961 743.926L130.827 772.126L180.671 710.411L169.805 682.211Z" fill="#27B079"/>
<path d="M-75.9614 713.154L-52.6756 716.811C-20.1107 722.493 3.00256 729.282 8.94517 744.703M-75.9614 713.154L-26.1171 651.439L-2.83127 655.096C30.5473 659.771 60.6723 662.273 84.8984 650.661C87.0258 666.412 113.954 672.871 146.519 678.554L169.805 682.211M-75.9614 713.154L-65.0949 741.353L-41.8091 745.01C-9.24417 750.693 13.5295 756.6 19.8117 772.903M8.94517 744.703C33.1713 733.092 63.2962 735.594 96.6748 740.269L119.961 743.926M8.94517 744.703L19.8117 772.903M119.961 743.926L169.805 682.211M119.961 743.926L130.827 772.126M169.805 682.211L180.671 710.411L130.827 772.126M19.8117 772.903C44.0378 761.292 74.1627 763.793 107.541 768.468L130.827 772.126" stroke="black"/>
<path d="M64.1109 698.694L37.3385 713.879L81.9797 701.507L65.1092 679.441L64.1109 698.694ZM8.60908 689.762L30.9491 712.679L57.7353 697.493L58.726 678.249L8.60908 689.762Z" fill="#08493C"/>
<path d="M1472.01 420.596L1458.26 434.341C1439.31 453.941 1427.2 469.689 1430.73 482.854C1408.95 486.879 1390.08 503.174 1370.1 522.499L1356.36 536.244L1293.17 519.312L1306.91 505.567C1325.86 485.966 1340.67 468.584 1334.44 457.053C1356.23 453.028 1375.09 436.733 1395.07 417.409L1408.81 403.664L1472.01 420.596Z" fill="#63EA71"/>
<path d="M1458.26 434.341L1472.01 420.596L1478.46 444.668L1464.71 458.414C1445.76 478.014 1433.45 493.01 1437.18 506.927L1430.73 482.854C1427.2 469.689 1439.31 453.941 1458.26 434.341Z" fill="#27B079"/>
<path d="M1370.1 522.499C1390.08 503.174 1408.95 486.879 1430.73 482.854L1437.18 506.927C1415.4 510.952 1396.53 527.247 1376.55 546.571L1362.81 560.316L1356.36 536.244L1370.1 522.499Z" fill="#08493C"/>
<path d="M1293.17 519.312L1356.36 536.244L1362.81 560.316L1299.62 543.384L1293.17 519.312Z" fill="#08493C"/>
<path d="M1472.01 420.596L1458.26 434.341C1439.31 453.941 1427.2 469.689 1430.73 482.854M1472.01 420.596L1408.81 403.664L1395.07 417.409C1375.09 436.733 1356.23 453.028 1334.44 457.053C1340.67 468.584 1325.86 485.966 1306.91 505.567L1293.17 519.312M1472.01 420.596L1478.46 444.668L1464.71 458.414C1445.76 478.014 1433.45 493.01 1437.18 506.927M1430.73 482.854C1408.95 486.879 1390.08 503.174 1370.1 522.499L1356.36 536.244M1430.73 482.854L1437.18 506.927M1356.36 536.244L1293.17 519.312M1356.36 536.244L1362.81 560.316M1293.17 519.312L1299.62 543.384L1362.81 560.316M1437.18 506.927C1415.4 510.952 1396.53 527.247 1376.55 546.571L1362.81 560.316" stroke="black"/>
<path d="M1374.24 458.436C1375.02 458.368 1375.76 458.421 1376.4 458.592C1377.04 458.763 1377.55 459.047 1377.89 459.418L1382.57 465.204L1385.98 469.096L1390.65 474.884C1391 475.255 1391.51 475.538 1392.15 475.709C1392.79 475.88 1393.53 475.934 1394.31 475.865L1403.65 474.828C1404.42 474.745 1405.2 474.541 1405.91 474.235C1406.62 473.93 1407.24 473.533 1407.72 473.082L1413.29 467.503C1413.76 467.045 1414.05 466.547 1414.12 466.064C1414.19 465.582 1414.04 465.135 1413.69 464.775L1409.82 460.337C1409.47 459.965 1408.96 459.681 1408.32 459.51C1407.69 459.339 1406.94 459.286 1406.16 459.356L1396.93 460.278C1396.16 460.362 1395.39 460.566 1394.68 460.871C1393.97 461.177 1393.34 461.573 1392.87 462.024L1389.3 465.596L1386.14 461.63L1389.59 458.169C1390.03 457.706 1390.65 457.296 1391.36 456.986C1392.07 456.676 1392.86 456.478 1393.62 456.415L1410.8 454.512C1411.59 454.442 1412.33 454.495 1412.97 454.666C1413.61 454.838 1414.12 455.122 1414.46 455.493L1421.52 463.901C1421.95 464.238 1422.16 464.686 1422.12 465.183C1422.07 465.68 1421.78 466.2 1421.27 466.669L1410.9 477.056C1410.45 477.517 1409.83 477.924 1409.11 478.231C1408.4 478.537 1407.61 478.731 1406.84 478.789L1389.52 480.668C1388.73 480.737 1387.99 480.684 1387.35 480.513C1386.72 480.341 1386.2 480.058 1385.86 479.687L1381.07 474.011L1377.89 470.042L1373.12 464.385C1372.78 464.014 1372.27 463.73 1371.63 463.559C1370.99 463.388 1370.25 463.335 1369.47 463.404L1360.24 464.326C1359.47 464.41 1358.7 464.614 1357.99 464.92C1357.28 465.225 1356.65 465.622 1356.18 466.073L1350.71 471.546C1350.24 472.004 1349.95 472.502 1349.88 472.984C1349.81 473.465 1349.96 473.912 1350.31 474.271L1354.07 478.82C1354.42 479.192 1354.93 479.476 1355.57 479.647C1356.2 479.818 1356.95 479.871 1357.73 479.801L1366.96 478.878C1367.72 478.796 1368.5 478.592 1369.21 478.287C1369.92 477.982 1370.54 477.586 1371.02 477.135L1374.6 473.548L1377.73 477.361L1374.16 480.933C1373.72 481.397 1373.1 481.807 1372.38 482.115C1371.66 482.424 1370.87 482.619 1370.1 482.679L1352.79 484.545C1352 484.615 1351.26 484.561 1350.62 484.39C1349.98 484.219 1349.47 483.935 1349.13 483.563L1342.07 475.155C1341.76 474.782 1341.64 474.337 1341.71 473.861C1341.79 473.386 1342.05 472.895 1342.49 472.436L1352.86 462.045C1353.31 461.581 1353.93 461.171 1354.65 460.863C1355.36 460.554 1356.15 460.36 1356.92 460.301L1374.24 458.436Z" fill="#08493C"/>
<path d="M1135.73 728.209L1153.26 730.788C1177.77 734.822 1195.2 739.755 1199.77 751.303C1217.9 742.399 1240.56 744.06 1265.68 747.331L1283.21 749.91L1320.22 703.162L1302.69 700.583C1278.17 696.55 1257.89 691.891 1256.17 680.069C1238.05 688.972 1215.39 687.311 1190.27 684.041L1172.74 681.462L1135.73 728.209Z" fill="#63EA71"/>
<path d="M1153.26 730.788L1135.73 728.209L1144.1 749.324L1161.63 751.903C1186.15 755.937 1203.31 760.211 1208.15 772.418L1199.77 751.303C1195.2 739.755 1177.77 734.822 1153.26 730.788Z" fill="#27B079"/>
<path d="M1265.68 747.331C1240.56 744.06 1217.9 742.399 1199.77 751.303L1208.15 772.418C1226.27 763.515 1248.93 765.175 1274.05 768.446L1291.58 771.025L1283.21 749.91L1265.68 747.331Z" fill="#08493C"/>
<path d="M1320.22 703.162L1283.21 749.91L1291.58 771.025L1328.59 724.278L1320.22 703.162Z" fill="#08493C"/>
<path d="M1135.73 728.209L1153.26 730.788C1177.77 734.822 1195.2 739.755 1199.77 751.303M1135.73 728.209L1172.74 681.462L1190.27 684.041C1215.39 687.311 1238.05 688.972 1256.17 680.069C1257.89 691.891 1278.17 696.55 1302.69 700.583L1320.22 703.162M1135.73 728.209L1144.1 749.324L1161.63 751.903C1186.15 755.937 1203.31 760.211 1208.15 772.418M1199.77 751.303C1217.9 742.399 1240.56 744.06 1265.68 747.331L1283.21 749.91M1199.77 751.303L1208.15 772.418M1283.21 749.91L1320.22 703.162M1283.21 749.91L1291.58 771.025M1320.22 703.162L1328.59 724.278L1291.58 771.025M1208.15 772.418C1226.27 763.515 1248.93 765.175 1274.05 768.446L1291.58 771.025" stroke="black"/>
<path d="M1241.8 695.073C1244.1 695.412 1240.86 702.23 1234.43 711.062L1234.44 711.054C1234.26 711.305 1233.35 712.599 1231.09 715.454C1229.29 717.725 1227.93 719.325 1227.45 719.886C1220.03 728.59 1212.93 734.857 1210.62 734.518C1208.32 734.178 1211.57 727.344 1218.02 718.495L1225.54 719.603C1226.04 719.037 1227.46 717.412 1229.26 715.141C1231.41 712.415 1232.35 711.03 1232.51 710.78L1225 709.672C1232.41 700.987 1239.5 694.734 1241.8 695.073ZM1243.97 693.072C1241 692.634 1232.64 699.719 1224.22 709.549L1217.5 708.557L1227.16 696.336L1216.9 694.823L1190.59 728.099L1200.85 729.611L1210.51 717.392L1217.24 718.383C1209.96 728.4 1206.54 736.235 1209.51 736.673C1212.48 737.11 1220.86 730.006 1229.29 720.159L1250.85 723.337L1257.83 714.504L1236.26 711.325C1243.52 701.331 1246.94 693.509 1243.97 693.072Z" fill="#08493C"/>
</g>
<defs>
<radialGradient id="paint0_radial_20620_3873" cx="0" cy="0" r="1" gradientUnits="userSpaceOnUse" gradientTransform="translate(768 800) rotate(-90) scale(800 861)">
<stop stop-color="white"/>
<stop offset="0.2575" stop-color="#F4FDAB"/>
<stop offset="0.699338" stop-color="#FFA94B"/>
<stop offset="1" stop-color="#FF7722"/>
</radialGradient>
<radialGradient id="paint1_radial_20620_3873" cx="0" cy="0" r="1" gradientUnits="userSpaceOnUse" gradientTransform="translate(759.749 793) rotate(-90) scale(541.5 787.535)">
<stop offset="0.278442" stop-color="#FF7722" stop-opacity="0"/>
<stop offset="0.713527" stop-color="#FF7722"/>
</radialGradient>
<clipPath id="clip0_20620_3873">
<rect width="1536" height="800" fill="white" transform="translate(-8)"/>
</clipPath>
<clipPath id="clip1_20620_3873">
<rect x="666" y="674" width="188" height="188" rx="94" fill="white"/>
</clipPath>
</defs>
</svg>
