<svg width="384" height="141" viewBox="0 0 384 141" fill="none" xmlns="http://www.w3.org/2000/svg">
<path opacity="0.2" d="M-7.71484 27.0436L394.5 77.2766M383.338 -2.8745L271.803 144.5M33.1027 -2.8745C20.9403 46.6948 21.799 97.2065 33.9191 144.5M102.984 -2.87451C87.107 46.6019 88.4265 98.046 104 144.5M164.29 -2.8745C163.622 -1.34992 162.972 0.188404 162.342 1.74033C142.9 49.6108 145.596 100.976 165.636 144.5M218.133 -2.87451C213.588 4.10754 209.64 11.6226 206.388 19.6293C188.998 62.4479 195.681 109.067 220.099 144.5M232.819 -2.87451L395.496 120.106M267.886 -2.87451C256.527 6.69644 247.266 19.0896 241.29 33.8037C224.903 74.1518 238.394 119.216 271.402 144.5M272.266 -2.8745L387.087 144.5M298.081 -2.87451L360.415 144.5M318.628 -2.87451L339.137 144.5M337.685 -2.8745L319.359 144.5M358.037 -2.87451L298.184 144.5M-7.71484 115.647L395.496 59.9122M395.496 41.0448L150.177 144.5M395.496 17.3275L231.96 144.5M374.404 87.8661C364.238 112.898 335.682 124.94 310.624 114.763C285.566 104.586 273.493 76.0436 283.659 51.0118C293.826 25.98 322.381 13.9378 347.439 24.1148C372.498 34.2918 384.57 62.8343 374.404 87.8661ZM391.017 94.6128C377.128 128.81 338.118 145.261 303.884 131.358C269.651 117.455 253.158 78.4617 267.047 44.2647C280.935 10.0677 319.946 -6.38365 354.179 7.5196C388.412 21.4228 404.905 60.4159 391.017 94.6128Z" stroke="url(#paint0_radial_22801_14849)" stroke-width="0.5"/>
<defs>
<radialGradient id="paint0_radial_22801_14849" cx="0" cy="0" r="1" gradientUnits="userSpaceOnUse" gradientTransform="translate(328.876 69.3758) rotate(-67.8963) scale(465.9 678.304)">
<stop offset="0.0873788" stop-color="#63EA71" stop-opacity="0"/>
<stop offset="0.402913" stop-color="#63EA71"/>
<stop offset="0.815534" stop-color="#63EA71" stop-opacity="0"/>
</radialGradient>
</defs>
</svg>
