<svg width="48" height="48" viewBox="0 0 48 48" fill="none" xmlns="http://www.w3.org/2000/svg">
<g clip-path="url(#clip0_22498_29782)">
<path d="M36 0H12C5.37258 0 0 5.37258 0 12V36C0 42.6274 5.37258 48 12 48H36C42.6274 48 48 42.6274 48 36V12C48 5.37258 42.6274 0 36 0Z" fill="#63EA71"/>
<path d="M36 0H12C5.37258 0 0 5.37258 0 12V36C0 42.6274 5.37258 48 12 48H36C42.6274 48 48 42.6274 48 36V12C48 5.37258 42.6274 0 36 0Z" fill="url(#paint0_linear_22498_29782)"/>
<path fill-rule="evenodd" clip-rule="evenodd" d="M29.5542 14.4023C24.2758 14.4023 19.979 18.6964 19.979 23.9775C19.979 29.2587 24.273 33.5527 29.5542 33.5527C34.8355 33.5527 39.1295 29.2587 39.1295 23.9775C39.1295 18.6964 34.8355 14.4023 29.5542 14.4023ZM29.5542 30.8142C25.7796 30.8142 22.7148 27.7495 22.7148 23.9749C22.7148 20.2002 25.7796 17.1354 29.5542 17.1354C33.3289 17.1354 36.3937 20.2002 36.3937 23.9749C36.3937 27.7495 33.3289 30.8142 29.5542 30.8142ZM16.15 29.4464H15.0567C14.5917 29.4464 14.2355 29.0901 14.2355 28.6251V19.4633C14.2355 18.9982 14.5917 18.642 15.0567 18.642H16.15C16.615 18.642 16.9712 18.9982 16.9712 19.4633V28.6278C16.9712 29.0929 16.615 29.4491 16.15 29.4491V29.4464ZM9.58516 27.5591H10.6784C11.1434 27.5591 11.4997 27.2028 11.4997 26.7378V21.239C11.4997 20.774 11.1434 20.4178 10.6784 20.4178H9.58788C9.12285 20.4178 8.7666 20.774 8.7666 21.239V26.7378C8.7666 27.2028 9.12285 27.5591 9.58788 27.5591H9.58516Z" fill="black"/>
</g>
<defs>
<linearGradient id="paint0_linear_22498_29782" x1="0" y1="24" x2="48" y2="24" gradientUnits="userSpaceOnUse">
<stop stop-color="#0BF1F0"/>
<stop offset="1" stop-color="#AAFD04"/>
</linearGradient>
<clipPath id="clip0_22498_29782">
<rect width="48" height="48" fill="white"/>
</clipPath>
</defs>
</svg>
