<svg width="48" height="48" viewBox="0 0 48 48" fill="none" xmlns="http://www.w3.org/2000/svg">
<g clip-path="url(#clip0_22498_38885)">
<path d="M36 0H12C5.37258 0 0 5.37258 0 12V36C0 42.6274 5.37258 48 12 48H36C42.6274 48 48 42.6274 48 36V12C48 5.37258 42.6274 0 36 0Z" fill="#63EA71"/>
<path d="M38.1766 10.5159C38.14 10.3455 38.0551 10.1894 37.9318 10.0662C37.8086 9.94302 37.6525 9.85803 37.4822 9.82146C35.6493 9.42871 34.2156 9.42871 32.7868 9.42871C26.9127 9.42871 23.3894 12.5706 20.7603 16.7145H14.8293C14.3228 16.7148 13.8264 16.8561 13.3954 17.1224C12.9645 17.3886 12.6162 17.7694 12.3891 18.2223L9.57618 23.8458C9.4723 24.0542 9.42338 24.2856 9.43406 24.5182C9.44474 24.7508 9.51467 24.9767 9.6372 25.1746C9.75975 25.3725 9.93084 25.5358 10.1342 25.6491C10.3376 25.7624 10.5666 25.8216 10.7994 25.8215H16.7059L15.4269 27.1006C15.0854 27.4421 14.8936 27.9053 14.8936 28.3883C14.8936 28.8713 15.0854 29.3346 15.4269 29.6762L18.3242 32.5739C18.4933 32.7431 18.6942 32.8773 18.9151 32.9688C19.1361 33.0604 19.373 33.1076 19.6123 33.1076C19.8514 33.1076 20.0883 33.0604 20.3094 32.9688C20.5304 32.8773 20.7312 32.7431 20.9004 32.5739L22.1793 31.295V37.2054C22.1793 37.4382 22.2386 37.6671 22.3519 37.8704C22.465 38.0738 22.6284 38.2448 22.8261 38.3673C23.024 38.4898 23.2498 38.5598 23.4823 38.5706C23.7148 38.5812 23.9461 38.5324 24.1544 38.4287L29.7724 35.6175C30.2259 35.3909 30.6074 35.0423 30.8738 34.611C31.1403 34.1796 31.2812 33.6826 31.2808 33.1756V27.2326C35.4126 24.5973 38.5665 21.0626 38.5665 15.2175C38.5722 13.783 38.5722 12.3486 38.1766 10.5159ZM31.2865 18.9912C30.8361 18.9912 30.396 18.8577 30.0216 18.6075C29.6472 18.3573 29.3553 18.0017 29.183 17.5857C29.0107 17.1696 28.9656 16.7118 29.0534 16.2702C29.1412 15.8286 29.3581 15.4229 29.6766 15.1044C29.9949 14.7861 30.4006 14.5692 30.8422 14.4814C31.284 14.3936 31.7418 14.4387 32.1578 14.611C32.5738 14.7833 32.9294 15.075 33.1796 15.4496C33.4297 15.824 33.5632 16.2641 33.5632 16.7145C33.5632 17.3183 33.3234 17.8973 32.8964 18.3244C32.4694 18.7514 31.8903 18.9912 31.2865 18.9912Z" fill="black"/>
</g>
<defs>
<clipPath id="clip0_22498_38885">
<rect width="48" height="48" fill="white"/>
</clipPath>
</defs>
</svg>
