<svg width="48" height="48" viewBox="0 0 48 48" fill="none" xmlns="http://www.w3.org/2000/svg">
<circle cx="24" cy="24" r="24" fill="#171717"/>
<path fill-rule="evenodd" clip-rule="evenodd" d="M45.7802 34.0945C47.2047 31.026 47.9999 27.6059 47.9999 24.0001C47.9999 10.7453 37.2547 0.000118955 23.9999 0.000119081C10.7451 0.000119007 -0.000101618 10.7453 -0.000101403 24.0001C-0.000101101 37.255 10.7451 48.0001 23.9999 48.0001C26.4308 48.0001 28.7773 47.6387 30.9886 46.9667L30.1922 46.4116C27.5049 44.5387 24.8152 42.6642 22.1427 40.7621C21.8787 40.575 21.4048 40.1682 21.2302 39.5376C20.8591 38.1972 20.0647 37.3627 18.727 36.9181C18.1707 36.7325 17.6589 36.2458 17.3575 35.6149C15.9928 32.7648 14.6623 29.8863 13.3353 27.0082L12.247 24.6527C12.1372 24.4126 12.048 24.1326 12.1148 23.7064L12.2803 22.6484L33.033 46.2421C35.3984 45.2805 37.5757 43.9526 39.4946 42.3287L39.4152 42.2596L39.4131 42.2578L39.4089 42.2541C37.7532 40.8127 36.0972 39.3709 34.4432 37.9251C34.012 37.5464 33.5877 37.1595 33.1647 36.7709L32.9938 36.6159L32.9936 36.6157C32.6894 36.3397 32.3841 36.0628 32.0769 35.7915C31.4119 35.2034 30.6872 34.4744 30.4859 33.2728C30.4574 33.1077 30.285 32.9362 30.129 32.7811L30.1179 32.77L13.1217 15.4144C12.9905 15.2815 12.834 15.0905 12.7867 14.7763L12.6295 13.7338L13.3999 14.3047C14.72 15.282 16.0634 16.2308 17.4087 17.1791L17.428 17.1926C21.4095 20.0053 25.5115 22.9031 28.9932 26.5534L28.9551 26.4381C28.7915 25.9574 28.6277 25.4605 28.5682 24.8759L28.4162 23.3528L41.1453 40.794C42.6279 39.2806 43.9117 37.5718 44.9544 35.7097C40.5899 31.8693 28.6751 16.3827 27.0641 12.0899L26.5223 10.6504L27.6842 11.5115C34.5739 16.643 40.3551 23.8507 45.7802 34.0945Z" fill="#171717"/>
<path fill-rule="evenodd" clip-rule="evenodd" d="M45.7802 34.0945C47.2047 31.026 47.9999 27.6059 47.9999 24.0001C47.9999 10.7453 37.2547 0.000118955 23.9999 0.000119081C10.7451 0.000119007 -0.000101618 10.7453 -0.000101403 24.0001C-0.000101101 37.255 10.7451 48.0001 23.9999 48.0001C26.4308 48.0001 28.7773 47.6387 30.9886 46.9667L30.1922 46.4116C27.5049 44.5387 24.8152 42.6642 22.1427 40.7621C21.8787 40.575 21.4048 40.1682 21.2302 39.5376C20.8591 38.1972 20.0647 37.3627 18.727 36.9181C18.1707 36.7325 17.6589 36.2458 17.3575 35.6149C15.9928 32.7648 14.6623 29.8863 13.3353 27.0082L12.247 24.6527C12.1372 24.4126 12.048 24.1326 12.1148 23.7064L12.2803 22.6484L33.033 46.2421C35.3984 45.2805 37.5757 43.9526 39.4946 42.3287L39.4152 42.2596L39.4131 42.2578L39.4089 42.2541C37.7532 40.8127 36.0972 39.3709 34.4432 37.9251C34.012 37.5464 33.5877 37.1595 33.1647 36.7709L32.9938 36.6159L32.9936 36.6157C32.6894 36.3397 32.3841 36.0628 32.0769 35.7915C31.4119 35.2034 30.6872 34.4744 30.4859 33.2728C30.4574 33.1077 30.285 32.9362 30.129 32.7811L30.1179 32.77L13.1217 15.4144C12.9905 15.2815 12.834 15.0905 12.7867 14.7763L12.6295 13.7338L13.3999 14.3047C14.72 15.282 16.0634 16.2308 17.4087 17.1791L17.428 17.1926C21.4095 20.0053 25.5115 22.9031 28.9932 26.5534L28.9551 26.4381C28.7915 25.9574 28.6277 25.4605 28.5682 24.8759L28.4162 23.3528L41.1453 40.794C42.6279 39.2806 43.9117 37.5718 44.9544 35.7097C40.5899 31.8693 28.6751 16.3827 27.0641 12.0899L26.5223 10.6504L27.6842 11.5115C34.5739 16.643 40.3551 23.8507 45.7802 34.0945Z" fill="url(#paint0_linear_21364_4244)"/>
<defs>
<linearGradient id="paint0_linear_21364_4244" x1="21.8239" y1="0.0974218" x2="26.1759" y2="47.9028" gradientUnits="userSpaceOnUse">
<stop stop-color="#63EA71"/>
<stop offset="1" stop-color="#F4FDAB"/>
</linearGradient>
</defs>
</svg>
