<svg width="40" height="40" viewBox="0 0 40 40" fill="none" xmlns="http://www.w3.org/2000/svg">
<rect width="40" height="40" rx="10" fill="black"/>
<path fill-rule="evenodd" clip-rule="evenodd" d="M31.2589 13.5L20.0005 7L8.74219 13.5V26.5L20.0005 33L31.2589 26.5V13.5ZM20.0025 14C20.0283 14 20.0541 14.0002 20.0798 14.0005L19.9251 14.0005C19.9509 14.0002 19.9767 14 20.0025 14ZM26.0025 20C26.0025 17.2048 24.0911 14.8561 21.5041 14.1894V25.8106C24.0911 25.1439 26.0025 22.7952 26.0025 20ZM18.5005 14.1895V25.8105C15.9137 25.1437 14.0025 22.7951 14.0025 20C14.0025 17.2049 15.9137 14.8563 18.5005 14.1895Z" fill="white"/>
</svg>
