<svg width="64" height="64" viewBox="0 0 64 64" fill="none" xmlns="http://www.w3.org/2000/svg">
<g clip-path="url(#clip0_21237_16688)">
<rect width="64" height="64" rx="16" fill="#FFB152"/>
<path d="M143.008 34.1802C173.664 51.7538 173.664 80.2462 143.008 97.8198C112.352 115.393 62.6483 115.393 31.9921 97.8198C1.33596 80.2462 1.33596 51.7538 31.9921 34.1802C62.6483 16.6066 112.352 16.6066 143.008 34.1802Z" stroke="black" stroke-width="1.4"/>
<path d="M155.029 27.1091C192.324 48.588 192.324 83.412 155.029 104.891C117.734 126.37 57.2664 126.37 19.9713 104.891C-17.3238 83.412 -17.3238 48.588 19.9713 27.1091C57.2664 5.63029 117.734 5.63029 155.029 27.1091Z" stroke="black" stroke-width="1.4"/>
<path d="M131.134 41.2513C154.955 54.9196 154.955 77.0804 131.134 90.7487C107.312 104.417 68.6885 104.417 44.8665 90.7487C21.0445 77.0804 21.0445 54.9196 44.8665 41.2513C68.6885 27.5829 107.312 27.5829 131.134 41.2513Z" fill="black" stroke="black" stroke-width="1.4"/>
<path d="M32.7992 20.3176C33.7934 23.4751 37.159 25.2289 40.3166 24.2347C43.4742 23.2405 45.2279 19.8748 44.2337 16.7173C43.2395 13.5597 39.8739 11.806 36.7163 12.8001C33.5587 13.7943 31.805 17.16 32.7992 20.3176Z" fill="#27B079" stroke="black" stroke-width="1.4"/>
<path d="M58.5615 24.1998C58.9384 27.4886 61.9101 29.8492 65.1989 29.4723C68.4878 29.0954 70.8484 26.1237 70.4715 22.8349C70.0946 19.546 67.1229 17.1854 63.8341 17.5623C60.5452 17.9392 58.1846 20.9109 58.5615 24.1998Z" fill="white" stroke="black" stroke-width="1.4"/>
<path d="M38.5713 44.8221C40.3133 47.6371 44.0074 48.507 46.8224 46.7651C49.6374 45.0232 50.5073 41.329 48.7654 38.514C47.0234 35.699 43.3293 34.8291 40.5143 36.571C37.6993 38.313 36.8294 42.0071 38.5713 44.8221Z" fill="#FF7722" stroke="black" stroke-width="1.4"/>
<path d="M6.5 84C21.1355 84 33 72.1355 33 57.5C33 50.085 29.9545 43.3812 25.0461 38.5714C20.2665 33.8878 13.7205 31 6.5 31C-8.13555 31 -20 42.8645 -20 57.5C-20 61.9956 -18.8806 66.2297 -16.9052 69.9388C-12.4498 78.3049 -3.63998 84 6.5 84Z" fill="#F4FDAB" stroke="black" stroke-width="1.4"/>
</g>
<defs>
<clipPath id="clip0_21237_16688">
<rect width="64" height="64" rx="16" fill="white"/>
</clipPath>
</defs>
</svg>
