<svg width="64" height="64" viewBox="0 0 64 64" fill="none" xmlns="http://www.w3.org/2000/svg">
<g clip-path="url(#clip0_21237_16612)">
<rect width="64" height="64" rx="16" fill="#F4FDAB"/>
<path d="M51 65H13L17.2222 40H46.7778L51 65Z" fill="black"/>
<path d="M46.7778 40H17.2222L25.6667 -3H38.3333L46.7778 40Z" fill="white"/>
<path d="M17.2222 40H46.7778M17.2222 40L13 65H51L46.7778 40M17.2222 40L25.6667 -3H38.3333L46.7778 40" stroke="black" stroke-width="1.4" stroke-linejoin="round"/>
<path d="M32 47.778C24.268 47.778 18 44.2956 18 39.9999C18 35.7041 24.268 32.2217 32 32.2217C39.732 32.2217 46 35.7041 46 39.9999C46 44.2956 39.732 47.778 32 47.778Z" fill="#27B079"/>
<path d="M32 50.778C39.732 50.778 46 47.2956 46 42.9999V39.9999C46 44.2956 39.732 47.778 32 47.778C24.268 47.778 18 44.2956 18 39.9999V42.9999C18 47.2956 24.268 50.778 32 50.778Z" fill="#27B079"/>
<path d="M46 39.9999C46 44.2956 39.732 47.778 32 47.778C24.268 47.778 18 44.2956 18 39.9999M46 39.9999C46 35.7041 39.732 32.2217 32 32.2217C24.268 32.2217 18 35.7041 18 39.9999M46 39.9999V42.9999C46 47.2956 39.732 50.778 32 50.778C24.268 50.778 18 47.2956 18 42.9999V39.9999" stroke="black" stroke-width="1.4"/>
<path d="M-3 37.5563C-10.732 37.5563 -17 34.0739 -17 29.7782C-17 25.4824 -10.732 22 -3 22C4.73199 22 11 25.4824 11 29.7782C11 34.0739 4.73199 37.5563 -3 37.5563Z" fill="#FFB152"/>
<path d="M-3 40.5563C4.73199 40.5563 11 37.0739 11 32.7782V29.7782C11 34.0739 4.73199 37.5563 -3 37.5563C-10.732 37.5563 -17 34.0739 -17 29.7782V32.7782C-17 37.0739 -10.732 40.5563 -3 40.5563Z" fill="#FFB152"/>
<path d="M11 29.7782C11 34.0739 4.73199 37.5563 -3 37.5563C-10.732 37.5563 -17 34.0739 -17 29.7782M11 29.7782C11 25.4824 4.73199 22 -3 22C-10.732 22 -17 25.4824 -17 29.7782M11 29.7782V32.7782C11 37.0739 4.73199 40.5563 -3 40.5563C-10.732 40.5563 -17 37.0739 -17 32.7782V29.7782" stroke="black" stroke-width="1.4"/>
<path d="M67 37.5563C59.268 37.5563 53 34.0739 53 29.7782C53 25.4824 59.268 22 67 22C74.732 22 81 25.4824 81 29.7782C81 34.0739 74.732 37.5563 67 37.5563Z" fill="#FFB152"/>
<path d="M67 40.5563C74.732 40.5563 81 37.0739 81 32.7782V29.7782C81 34.0739 74.732 37.5563 67 37.5563C59.268 37.5563 53 34.0739 53 29.7782V32.7782C53 37.0739 59.268 40.5563 67 40.5563Z" fill="#FFB152"/>
<path d="M81 29.7782C81 34.0739 74.732 37.5563 67 37.5563C59.268 37.5563 53 34.0739 53 29.7782M81 29.7782C81 25.4824 74.732 22 67 22C59.268 22 53 25.4824 53 29.7782M81 29.7782V32.7782C81 37.0739 74.732 40.5563 67 40.5563C59.268 40.5563 53 37.0739 53 32.7782V29.7782" stroke="black" stroke-width="1.4"/>
</g>
<defs>
<clipPath id="clip0_21237_16612">
<rect width="64" height="64" rx="16" fill="white"/>
</clipPath>
</defs>
</svg>
