<svg width="64" height="64" viewBox="0 0 64 64" fill="none" xmlns="http://www.w3.org/2000/svg">
<g clip-path="url(#clip0_21237_16992)">
<rect width="64" height="64" rx="16" fill="#FF7722"/>
<path d="M51.7501 34.6123V27.8045L42.8121 22.6491L32.0788 28.84L21.3455 22.6491L12.4075 27.8045V34.6123L21.231 39.7016L32.0788 45.9586L42.9266 39.7016L51.7501 34.6123Z" fill="#63EA71"/>
<path d="M-9 59.0763L10.6713 70.4226L51.7501 44.791L42.9266 39.7016L32.0788 45.9586L21.231 39.7016L-9 59.0763Z" fill="black"/>
<path fill-rule="evenodd" clip-rule="evenodd" d="M72 -36L32.0788 -13.3074V28.84L42.8121 22.6491L72 6.14739V-36Z" fill="white"/>
<path d="M51.7501 44.791V83.3684L10.6713 109M51.7501 44.791L10.6713 70.4226M51.7501 44.791L42.9266 39.7016M10.6713 109L-9 97.6537V59.0763M10.6713 109L10.6713 70.4226M-9 59.0763L10.6713 70.4226M-9 59.0763L21.231 39.7016M51.7501 27.8045V34.6123L42.9266 39.7016M51.7501 27.8045L42.8121 22.6491M51.7501 27.8045L32.0788 38.6115L12.4075 27.8045M12.4075 27.8045V34.6123L21.231 39.7016M12.4075 27.8045L21.3455 22.6491M72 -36H32.0788L12.4075 -24.6537M72 -36V6.14739L42.8121 22.6491M72 -36L32.0788 -13.3074M32.0788 28.84L21.3455 22.6491M32.0788 28.84L42.8121 22.6491M32.0788 28.84V-13.3074M12.4075 -24.6537V17.4937L21.3455 22.6491M12.4075 -24.6537L32.0788 -13.3074M42.9266 39.7016L32.0788 45.9586L21.231 39.7016" stroke="black" stroke-width="1.4"/>
</g>
<defs>
<clipPath id="clip0_21237_16992">
<rect width="64" height="64" rx="16" fill="white"/>
</clipPath>
</defs>
</svg>
